<svg height="512" viewBox="0 0 64 64" width="512" xmlns="http://www.w3.org/2000/svg"><path d="m30 50v2h-27v-38h4v34h21a2.006 2.006 0 0 1 2 2z" fill="#5aaae7"/><path d="m57 14v34h-21a2.006 2.006 0 0 0 -2 2v2h27v-38z" fill="#5aaae7"/><path d="m7 48h23v2h-23z" fill="#3d9ae2"/><path d="m34 48h25v2h-25z" fill="#3d9ae2"/><path d="m30 12v38a2.006 2.006 0 0 0 -2-2h-21v-38h21a2.006 2.006 0 0 1 2 2z" fill="#e6e7e8"/><path d="m57 10v38h-21a2.006 2.006 0 0 0 -2 2v-38a2.006 2.006 0 0 1 2-2z" fill="#e6e7e8"/><path d="m30 13v39a2 2 0 0 0 4 0v-39z" fill="#1e81ce"/><path d="m15 10v6l-2-2-2 2v-6z" fill="#ff5023"/><path d="m41.06 38.23a10.583 10.583 0 0 1 -2.83 2.83 11 11 0 1 1 2.83-2.83z" fill="#ff9811"/><path d="m41.07 38.24 2.95 2.95.01.01-2.83 2.83-.01-.01-2.95-2.95-.01-.01a10.583 10.583 0 0 0 2.83-2.83z" fill="#ffb655"/><path d="m46 41.76-1.27-1.27-.7.71-2.83 2.83-.71.7 1.27 1.27 1.55 1.56h.01l2.12-2.12 2.12-2.12z" fill="#ffa733"/><circle cx="32" cy="32" fill="#ffb655" r="7"/><path d="m53.92 51.09-2.83 2.83a1 1 0 0 1 -1.41 0l-6.36-6.36 2.12-2.12 2.12-2.12 6.36 6.36a1 1 0 0 1 0 1.41z" fill="#ee8700"/><path d="m57 14h2v34h-2z" fill="#3d9ae2"/><path d="m61 13h-3v-3a1 1 0 0 0 -1-1h-21a3 3 0 0 0 -3 3h-2a3 3 0 0 0 -3-3h-21a1 1 0 0 0 -1 1v3h-3a1 1 0 0 0 -1 1v38a1 1 0 0 0 1 1h26.184a2.982 2.982 0 0 0 5.632 0h12.527l1.628 1.627a2 2 0 0 0 2.828 0l1.627-1.627h7.574a1 1 0 0 0 1-1v-38a1 1 0 0 0 -1-1zm-26-1a1 1 0 0 1 1-1h20v36h-3.343l-7.222-7.222a1 1 0 0 0 -1.414 0l-1.694-1.693a11.958 11.958 0 0 0 -7.327-17.685zm-10.071 27.071a10 10 0 1 1 14.142 0 10.011 10.011 0 0 1 -14.142 0zm16.263 3.536-1.45-1.45c.254-.215.505-.433.743-.672s.457-.489.672-.743l1.45 1.45zm-6.192.993a11.893 11.893 0 0 0 3.085-1.276l1.693 1.694a1 1 0 0 0 0 1.414l1.565 1.568h-5.343a2.966 2.966 0 0 0 -1 .184zm6.9 1.125 2.828-2.825 1.414 1.414-2.829 2.829zm-8.9-30.725v6.053a12.142 12.142 0 0 0 -2 0v-6.053zm-21-3h2v2.586l-.293-.293a1 1 0 0 0 -1.414 0l-.293.293zm-4 0h2v5a1 1 0 0 0 1.707.707l1.293-1.293 1.293 1.293a1 1 0 0 0 1.707-.707v-5h12a1 1 0 0 1 1 1v8.4a11.976 11.976 0 0 0 0 23.2v3.581a2.966 2.966 0 0 0 -1-.181h-20zm-4 4h2v33a1 1 0 0 0 1 1h21a1 1 0 0 1 1 1v1h-25zm29 37a1 1 0 0 1 -2 0v-8.053c.333.027.666.047 1 .047s.667-.02 1-.047zm2-1v-1a1 1 0 0 1 1-1h7.343l2 2zm15.385 2.213-5.657-5.657 2.828-2.829 5.658 5.657zm9.615-2.213h-4.893a1.992 1.992 0 0 0 -.456-2h2.349a1 1 0 0 0 1-1v-33h2z"/><path d="m37.657 37.657a8 8 0 1 0 -5.657 2.343 7.948 7.948 0 0 0 5.657-2.343zm-11.657-5.657a6 6 0 1 1 1.757 4.243 5.963 5.963 0 0 1 -1.757-4.243z"/><path d="m10 19h12v2h-12z"/><path d="m10 23h8v2h-8z"/><path d="m10 27h8v2h-8z"/><path d="m10 31h8v2h-8z"/><path d="m10 35h8v2h-8z"/><path d="m10 39h10v2h-10z"/><path d="m10 43h14v2h-14z"/><path d="m38 15h16v2h-16z"/><path d="m40 19h14v2h-14z"/><path d="m44 23h10v2h-10z"/><path d="m46 27h8v2h-8z"/><path d="m46 31h8v2h-8z"/><path d="m46 35h8v2h-8z"/><path d="m18 15h6v2h-6z"/></svg>